<?xml version="1.0" encoding="iso-8859-1"?>
<!-- Generator: Adobe Illustrator 24.1.0, SVG Export Plug-In . SVG Version: 6.00 Build 0)  -->
<svg version="1.1" xmlns="http://www.w3.org/2000/svg" xmlns:xlink="http://www.w3.org/1999/xlink" x="0px" y="0px"
	 viewBox="0 0 512 512" style="enable-background:new 0 0 512 512;" xml:space="preserve">
<g id="_x32_3_Customer_Service_Agent_x2C__communications_x2C__call_x2C__custom_service_x2C__user">
	<g>
		<g>
			<g id="XMLID_2_">
				<g>
					<g>
						<path style="fill:#62DBFB;" d="M371,341v30v60.19c0,16.57-13.43,30-30,30H235.24L169.46,501l17.35-39.9H171
							c-16.57,0-30-13.43-30-30V371v-30c0-16.57,13.43-30,30-30h170C357.57,311,371,324.43,371,341z"/>
					</g>
					<g>
						<path style="fill:#A3CC52;" d="M416,371h-45v-30c0-16.57-13.43-30-30-30H171c-16.57,0-30,13.43-30,30v30H96
							c0-82.82,67.16-160,150-160h20C348.84,211,416,288.16,416,371z"/>
					</g>
					<g>
						<path style="fill:#FF641A;" d="M176.72,171h-43.87c-4.43-12.52-6.85-25.98-6.85-40c0-3.37,0.14-6.7,0.42-10h40.2
							c-0.41,3.28-0.62,6.61-0.62,10C166,145.56,169.9,159.22,176.72,171z"/>
					</g>
					<g>
						<path style="fill:#FF641A;" d="M365.58,121c0.28,3.3-2,37.48-6.43,50h-43.86l-0.01-0.01c8.42-14.51,12.37-31.83,10.1-49.99
							H365.58z"/>
					</g>
					<g>
						<path style="fill:#8795DE;" d="M365.58,121h-40.2c-4.92-39.46-38.59-70-79.38-70c-40.87,0-74.46,30.61-79.38,70h-40.2
							C131.51,59.61,183.08,11,246,11C308.8,11,360.49,59.49,365.58,121z"/>
					</g>
					<g>
						<path style="fill:#FFE1BA;" d="M176.72,171C169.9,159.22,166,145.56,166,131c0-3.39,0.21-6.72,0.62-10
							c4.92-39.39,38.51-70,79.38-70c40.79,0,74.46,30.54,79.38,70c2.27,18.16-1.68,35.48-10.1,49.99
							C301.53,194.77,275.83,211,246,211C216.36,211,190.53,194.89,176.72,171z"/>
					</g>
				</g>
			</g>
		</g>
		<g>
			<path d="M297.765,204.56c8.973-6.305,16.833-14.253,23.067-23.56h38.318c4.237,0,8.014-2.67,9.428-6.665
				C398.026,91.102,336.636,1,246,1C155.508,1,93.936,91.001,123.423,174.336c1.414,3.994,5.19,6.664,9.427,6.664h38.346
				c7.499,11.164,17.431,20.583,29.042,27.468C133.649,230.675,86,299.293,86,371c0,5.523,4.477,10,10,10h35v50.1
				c0,22.056,17.944,40,40,40h0.557l-11.268,25.912c-1.736,3.993-0.689,8.651,2.589,11.517c3.293,2.879,8.052,3.271,11.759,1.026
				l63.393-38.365H341c22.056,0,40-17.944,40-40V381h35c5.522,0,10-4.477,10-10C426,294.146,371.411,221.233,297.765,204.56z
				 M330.849,161c3.386-9.589,5.151-19.74,5.151-30h19.115c-0.657,8.674-1.942,21.271-3.683,30H330.849z M246,21
				c53.101,0,98.645,38.728,108.162,90h-20.394C324.634,70.731,288.52,41,246,41c-42.314,0-78.583,29.531-87.758,70h-20.403
				C147.393,59.568,193.042,21,246,21z M140.155,161c-2.76-9.731-4.155-19.792-4.155-30h19.993c-0.017,10.5,1.786,20.602,5.123,30
				H140.155z M197.067,181H236c5.523,0,10-4.477,10-10s-4.477-10-10-10h-53.249c-4.315-9.063-6.751-19.219-6.751-30
				c0-38.773,31.486-70,70-70c35.244,0,65.103,26.326,69.457,61.241c1.899,15.181-1.205,30.585-8.823,43.753
				C294.144,187.586,270.91,201,246,201C227.108,201,209.767,193.405,197.067,181z M361,431.19c0,11.028-8.972,20-20,20H235.24
				c-1.825,0-3.616,0.5-5.178,1.445l-38.905,23.545l4.823-11.092c2.871-6.601-1.98-13.988-9.17-13.988H171c-11.028,0-20-8.972-20-20
				c0-10.529,0-75.868,0-90.1c0-11.028,8.972-20,20-20h170c11.028,0,20,8.972,20,20C361,352.019,361,421.469,361,431.19z M381,361
				v-20c0-22.056-17.944-40-40-40H171c-22.056,0-40,17.944-40,40v20h-24.648c5.111-72.908,65.08-140,139.648-140h20
				c71.452,0,134.497,64.334,139.659,140H381z"/>
			<path d="M200.288,371h60c5.522,0,10-4.477,10-10s-4.478-10-10-10h-60c-5.523,0-10,4.477-10,10S194.765,371,200.288,371z"/>
			<path d="M311,401H201c-5.523,0-10,4.477-10,10s4.477,10,10,10h110c5.522,0,10-4.477,10-10S316.522,401,311,401z"/>
		</g>
	</g>
</g>
<g id="Layer_1">
</g>
</svg>
