<?xml version="1.0" encoding="iso-8859-1"?>
<!-- Generator: Adobe Illustrator 24.1.0, SVG Export Plug-In . SVG Version: 6.00 Build 0)  -->
<svg version="1.1" xmlns="http://www.w3.org/2000/svg" xmlns:xlink="http://www.w3.org/1999/xlink" x="0px" y="0px"
	 viewBox="0 0 512 512" style="enable-background:new 0 0 512 512;" xml:space="preserve">
<g id="_x33_4_x2C__Book_x2C__contact_x2C__notepad_x2C__clipbook_x2C__contact_book">
	<g>
		<g>
			<path style="fill:#A3E484;" d="M505.205,407.887v78.725c0,13.469-10.919,24.387-24.387,24.387h-21.976V383.5h21.976
				C494.286,383.5,505.205,394.419,505.205,407.887z"/>
			<path style="fill:#F2D644;" d="M505.205,280.387v78.725c0,13.469-10.919,24.387-24.387,24.387h-21.976V256h21.976
				C494.286,256,505.205,266.919,505.205,280.387z"/>
			<path style="fill:#DD6426;" d="M505.205,152.887v78.725c0,13.469-10.919,24.387-24.387,24.387h-21.976V128.5h21.976
				C494.286,128.5,505.205,139.419,505.205,152.887z"/>
			<path style="fill:#7DD5F3;" d="M505.205,25.387v78.725c0,13.469-10.919,24.387-24.387,24.387h-21.976V1h21.976
				C494.286,1,505.205,11.919,505.205,25.387z"/>
			<rect x="180.659" y="58.955" style="fill:#F2D644;" width="220.227" height="127.5"/>
			<path style="fill:#5B727B;" d="M76.341,1c0,16.786,0,491.82,0,510h382.5c0-7.09,0-499.388,0-510H76.341z"/>
			<path style="fill:#475858;" d="M47.364,105.318c-9.587,0-17.386-7.799-17.386-17.386c0-4.641,1.811-9.01,5.09-12.297
				c3.282-3.281,7.649-5.089,12.297-5.089h28.977c0-8.325,0-16.081,0-23.182H47.364c-10.84,0-21.029,4.219-28.697,11.889
				c-7.655,7.67-11.871,17.856-11.871,28.68c0,22.369,18.199,40.568,40.568,40.568h28.977c0-7.962,0-15.706,0-23.182H47.364z"/>
			<path style="fill:#303939;" d="M122.705,70.546c6.402,0,11.591-5.19,11.591-11.591s-5.189-11.591-11.591-11.591H76.341
				c0,7.101,0,14.857,0,23.182H122.705z"/>
			<path style="fill:#475858;" d="M47.364,221.227c-9.587,0-17.386-7.799-17.386-17.386c0-4.641,1.811-9.01,5.09-12.297
				c3.282-3.281,7.649-5.089,12.297-5.089h28.977c0-7.832,0-15.57,0-23.182H47.364c-10.84,0-21.029,4.219-28.697,11.889
				c-7.655,7.67-11.871,17.856-11.871,28.68c0,22.369,18.199,40.568,40.568,40.568h28.977c0-7.751,0-15.487,0-23.182H47.364z"/>
			<path style="fill:#303939;" d="M122.705,186.455c6.402,0,11.591-5.19,11.591-11.591c0-6.401-5.189-11.591-11.591-11.591H76.341
				c0,7.612,0,15.35,0,23.182H122.705z"/>
			<path style="fill:#475858;" d="M47.364,337.137c-9.587,0-17.386-7.799-17.386-17.386c0-4.641,1.811-9.01,5.09-12.297
				c3.282-3.281,7.649-5.089,12.297-5.089h28.977c0-7.68,0-15.416,0-23.182H47.364c-10.84,0-21.029,4.219-28.697,11.889
				c-7.655,7.67-11.871,17.856-11.871,28.68c0,22.369,18.199,40.568,40.568,40.568h28.977c0-7.591,0-15.33,0-23.182H47.364z"/>
			<path style="fill:#303939;" d="M122.705,302.364c6.402,0,11.591-5.19,11.591-11.591s-5.189-11.591-11.591-11.591H76.341
				c0,7.766,0,15.502,0,23.182H122.705z"/>
			<path style="fill:#475858;" d="M47.364,453.046c-9.587,0-17.386-7.799-17.386-17.386c0-4.641,1.811-9.01,5.09-12.297
				c3.282-3.281,7.649-5.089,12.297-5.089h28.977c0-7.434,0-15.177,0-23.182H47.364c-10.84,0-21.029,4.219-28.697,11.889
				c-7.655,7.67-11.871,17.856-11.871,28.68c0,22.369,18.199,40.568,40.568,40.568h28.977c0-6.914,0-14.676,0-23.182H47.364z"/>
			<path style="fill:#303939;" d="M122.705,418.273c6.402,0,11.591-5.19,11.591-11.591s-5.189-11.591-11.591-11.591H76.341
				c0,8.005,0,15.748,0,23.182H122.705z"/>
			<path style="fill:#E8E8ED;" d="M400.886,418.273H180.659c-6.402,0-11.591-5.19-11.591-11.591s5.189-11.591,11.591-11.591h220.227
				c6.401,0,11.591,5.19,11.591,11.591S407.287,418.273,400.886,418.273z"/>
			<path style="fill:#E8E8ED;" d="M400.886,371.909H180.659c-6.402,0-11.591-5.19-11.591-11.591s5.189-11.591,11.591-11.591h220.227
				c6.401,0,11.591,5.19,11.591,11.591S407.287,371.909,400.886,371.909z"/>
			<path style="fill:#E8E8ED;" d="M354.523,325.546h-127.5c-6.402,0-11.591-5.19-11.591-11.591s5.189-11.591,11.591-11.591h127.5
				c6.401,0,11.591,5.19,11.591,11.591S360.924,325.546,354.523,325.546z"/>
		</g>
	</g>
</g>
<g id="Layer_1">
</g>
</svg>
