<?xml version="1.0" encoding="iso-8859-1"?>
<!-- Generator: Adobe Illustrator 24.1.0, SVG Export Plug-In . SVG Version: 6.00 Build 0)  -->
<svg version="1.1" xmlns="http://www.w3.org/2000/svg" xmlns:xlink="http://www.w3.org/1999/xlink" x="0px" y="0px"
	 viewBox="0 0 520 520" style="enable-background:new 0 0 520 520;" xml:space="preserve">
<g id="_x32_3_x2C__Article_x2C__book_x2C__bookmark_x2C__mobile_x2C__online_x2C__study_x2C__tablet">
	<g>
		<g>
			<g>
				<path style="fill:#555E7E;" d="M430,450c0,5.526,0,10.274,0,15.8c0,24.409-19.789,44.2-44.2,44.2c-7.092,0-244.508,0-251.6,0
					c-24.409,0-44.2-19.789-44.2-44.2c0-5.526,0-10.274,0-15.8l170-20.5L430,450z"/>
				<path style="fill:#555E7E;" d="M430,54.2V70L247.25,97.25L90,70V54.2C90,29.79,109.79,10,134.2,10h251.6
					C410.21,10,430,29.79,430,54.2z"/>
				<path style="fill:#E4EBF8;" d="M220,70l-40,15.596L140,70c0,0-47.697,0-50,0v190v190c18.896,0,321.104,0,340,0
					c0-10.721,0-369.285,0-380C418.502,70,228.528,70,220,70z"/>
				<g>
					<g>
						<path style="fill:#65B2FF;" d="M380,394.5H140c-3.038,0-5.5,2.463-5.5,5.5s2.462,5.5,5.5,5.5h240c3.038,0,5.5-2.463,5.5-5.5
							S383.038,394.5,380,394.5z"/>
						<path style="fill:#65B2FF;" d="M140,365.5h170c3.038,0,5.5-2.463,5.5-5.5s-2.462-5.5-5.5-5.5H140c-3.038,0-5.5,2.463-5.5,5.5
							S136.962,365.5,140,365.5z"/>
						<path style="fill:#65B2FF;" d="M380,314.5h-80c-3.038,0-5.5,2.463-5.5,5.5s2.462,5.5,5.5,5.5h80c3.038,0,5.5-2.463,5.5-5.5
							S383.038,314.5,380,314.5z"/>
						<path style="fill:#65B2FF;" d="M140,325.5h80c3.038,0,5.5-2.463,5.5-5.5s-2.462-5.5-5.5-5.5h-80c-3.038,0-5.5,2.463-5.5,5.5
							S136.962,325.5,140,325.5z"/>
						<path style="fill:#65B2FF;" d="M380,274.5H140c-3.038,0-5.5,2.463-5.5,5.5s2.462,5.5,5.5,5.5h240c3.038,0,5.5-2.463,5.5-5.5
							S383.038,274.5,380,274.5z"/>
						<path style="fill:#65B2FF;" d="M380,234.5H270c-3.038,0-5.5,2.463-5.5,5.5s2.462,5.5,5.5,5.5h110c3.038,0,5.5-2.463,5.5-5.5
							S383.038,234.5,380,234.5z"/>
						<path style="fill:#65B2FF;" d="M380,194.5h-70c-3.038,0-5.5,2.463-5.5,5.5s2.462,5.5,5.5,5.5h70c3.038,0,5.5-2.463,5.5-5.5
							S383.038,194.5,380,194.5z"/>
						<path style="fill:#65B2FF;" d="M380,154.5H270c-3.038,0-5.5,2.463-5.5,5.5s2.462,5.5,5.5,5.5h110c3.038,0,5.5-2.463,5.5-5.5
							S383.038,154.5,380,154.5z"/>
						<path style="fill:#65B2FF;" d="M270,125.5h110c3.038,0,5.5-2.463,5.5-5.5s-2.462-5.5-5.5-5.5H270c-3.038,0-5.5,2.463-5.5,5.5
							S266.962,125.5,270,125.5z"/>
					</g>
				</g>
				<path style="fill:#FF3445;" d="M180,190l40,40V70c-29.685,0-57.651,0-80,0v160L180,190z"/>
			</g>
			<path style="fill:#FF3445;" d="M180,190l40,40V70c-29.685,0-57.651,0-80,0v160L180,190z"/>
		</g>
	</g>
</g>
<g id="Layer_1">
</g>
</svg>
