<?xml version="1.0" encoding="iso-8859-1"?>
<!-- Generator: Adobe Illustrator 19.0.0, SVG Export Plug-In . SVG Version: 6.00 Build 0)  -->
<svg version="1.1" id="Layer_1" xmlns="http://www.w3.org/2000/svg" xmlns:xlink="http://www.w3.org/1999/xlink" x="0px" y="0px"
	 viewBox="0 0 512 512" style="enable-background:new 0 0 512 512;" xml:space="preserve">
<g id="_x31_9_x2C__Reception_x2C__front_desk_x2C__hotel_x2C__information_x2C__reservation_x2C__check_in_x2C__receptionist_x2C__commerce_and_shoping">
	<g id="XMLID_1557_">
		<g id="XMLID_1558_">
			<path id="XMLID_1559_" style="fill:#B8E5FD;" d="M469.25,106h-141.5c-18.92,0-34.25,15.33-34.25,34.25v74
				c0,18.92,15.33,34.25,34.25,34.25h141.5c18.92,0,34.25-15.33,34.25-34.25v-74C503.5,121.33,488.17,106,469.25,106z"/>
			<path id="XMLID_1560_" style="fill:#D0976F;" d="M31,353.5v100c0,27.61,22.39,50,50,50h350c27.61,0,50-22.39,50-50v-100H31z"/>
			<path id="XMLID_1561_" style="fill:#666667;" d="M413.5,286h-30c0-7.53,0-60.496,0-67.5c0-8.28,6.72-15,15-15
				c8.266,0,15,6.72,15,15C413.5,225.503,413.5,278.47,413.5,286z"/>
			<path id="XMLID_1562_" style="fill:#E8EBFA;" d="M233.5,406v45c0,8.28-6.72,15-15,15H91c-8.28,0-15-6.72-15-15v-45
				c0-8.28,6.72-15,15-15h127.5C226.78,391,233.5,397.72,233.5,406z"/>
			<path id="XMLID_1563_" style="fill:#E8EBFA;" d="M436,406v45c0,8.28-6.72,15-15,15H293.5c-8.28,0-15-6.72-15-15v-45
				c0-8.28,6.72-15,15-15H421C429.28,391,436,397.72,436,406z"/>
			<path id="XMLID_1564_" style="fill:#D8A783;" d="M503.5,333.5c0,11.04-8.96,20-20,20c-18.665,0-436.641,0-455,0
				c-11.05,0-20-8.95-20-20C8.5,307.273,29.759,286,56,286c62.216,0,338.155,0,400,0C482.23,286,503.5,307.27,503.5,333.5z"/>
			<path id="XMLID_1565_" style="fill:#F3E185;" d="M232.25,286c-65.922,0.004-176.199-0.011-177.51,0.02
				c5.027-30.009,25.056-55.416,52.74-67.52l0.03-0.05c23.305,10.263,49.577,9.858,72.01,0.05
				C206.954,230.487,227.149,255.703,232.25,286z"/>
			<path id="XMLID_1566_" style="fill:#D8A783;" d="M58.48,165.58l0.06-0.02c8.29,23.59,26.17,42.84,48.97,52.88v0.01l-0.03,0.05
				c-15.05,6.58-27.96,17.16-37.37,30.4C15.81,215.29,23.5,136,23.5,136C23.5,154.591,40.325,168.718,58.48,165.58z"/>
			<path id="XMLID_1567_" style="fill:#D8A783;" d="M263.5,136c0,0,7.69,79.29-46.61,112.9c-9.41-13.24-22.31-23.82-37.37-30.4
				c22.85-9.99,40.75-29.2,49-52.92C246.633,168.711,263.5,154.656,263.5,136z"/>
			<path id="XMLID_1568_" style="fill:#D8A783;" d="M23.5,136c0-66.27,53.73-127.5,120-127.5s120,61.23,120,127.5
				c0-18.626-16.837-32.716-34.98-29.58c-3.01-8.67-7.31-16.74-12.68-23.97c-11.29-15.22-32.09-20.31-49.06-11.89
				c-14.611,7.253-31.935,7.261-46.56,0c-16.99-8.43-37.8-3.31-49.09,11.93c-5.35,7.23-9.65,15.28-12.66,23.93
				C40.445,103.305,23.5,117.264,23.5,136z"/>
			<path id="XMLID_1569_" style="fill:#EEBD9D;" d="M263.5,136c0,18.626-16.837,32.716-34.98,29.58c6.523-18.7,6.76-39.78,0-59.16
				C246.633,103.289,263.5,117.344,263.5,136z"/>
			<path id="XMLID_1570_" style="fill:#EEBD9D;" d="M58.54,165.56l-0.06,0.02c-19.116,3.304-36.509-12.459-34.87-32.13
				c1.469-17.521,17.735-29.99,34.86-27.03C51.991,125.06,51.669,146.032,58.54,165.56z"/>
			<path id="XMLID_1571_" style="fill:#F2D2BD;" d="M71.13,82.49c11.29-15.24,32.1-20.36,49.09-11.93
				c14.611,7.253,31.935,7.261,46.56,0c16.97-8.42,37.77-3.33,49.06,11.89c18.025,24.268,22.273,55.629,12.68,83.13
				c-12.37,35.565-46.394,60.951-86.3,60.41c-12.33-0.17-24.06-2.85-34.71-7.54v-0.01c-32.443-14.286-54.801-47.122-53.99-84.48
				C53.935,115.781,59.741,97.881,71.13,82.49z"/>
		</g>
		<g id="XMLID_1572_">
			<g id="XMLID_1573_">
				<path id="XMLID_1574_" d="M431,511H81c-31.706,0-57.5-25.794-57.5-57.5v-100c0-4.143,3.357-7.5,7.5-7.5s7.5,3.357,7.5,7.5v100
					c0,23.435,19.065,42.5,42.5,42.5h350c23.435,0,42.5-19.065,42.5-42.5v-100c0-4.143,3.357-7.5,7.5-7.5s7.5,3.357,7.5,7.5v100
					C488.5,485.206,462.706,511,431,511z"/>
			</g>
			<g id="XMLID_1575_">
				<path id="XMLID_1576_" d="M103.1,361H28.5C13.337,361,1,348.663,1,333.5c0-30.519,24.738-55,55-55h327.5
					c4.143,0,7.5,3.357,7.5,7.5s-3.357,7.5-7.5,7.5c-303.521,0.008-326.614-0.03-328.585,0.018C33.487,294.061,16,311.608,16,333.5
					c0,6.893,5.607,12.5,12.5,12.5h74.6c4.143,0,7.5,3.357,7.5,7.5S107.242,361,103.1,361z"/>
			</g>
			<g id="XMLID_1577_">
				<path id="XMLID_1578_" d="M483.5,361H163.1c-4.143,0-7.5-3.357-7.5-7.5s3.357-7.5,7.5-7.5h320.4c6.901,0,12.5-5.597,12.5-12.5
					c0-22.056-17.944-40-40-40h-42.5c-4.143,0-7.5-3.357-7.5-7.5s3.357-7.5,7.5-7.5H456c30.327,0,55,24.673,55,55
					C511,348.692,498.695,361,483.5,361z"/>
			</g>
			<g id="XMLID_1579_">
				<path id="XMLID_1580_" d="M383.5,256h-55.75c-23.022,0-41.75-18.729-41.75-41.75v-74c0-23.021,18.728-41.75,41.75-41.75h36.23
					c4.142,0,7.5,3.357,7.5,7.5s-3.358,7.5-7.5,7.5h-36.23c-14.75,0-26.75,12-26.75,26.75v74C301,229,313,241,327.75,241h55.75
					c4.143,0,7.5,3.357,7.5,7.5S387.643,256,383.5,256z"/>
			</g>
			<g id="XMLID_1581_">
				<path id="XMLID_1582_" d="M469.25,256H413.5c-4.143,0-7.5-3.357-7.5-7.5s3.357-7.5,7.5-7.5h55.75C484,241,496,229,496,214.25
					v-74c0-14.75-12-26.75-26.75-26.75h-45.27c-4.143,0-7.5-3.357-7.5-7.5s3.357-7.5,7.5-7.5h45.27
					c23.022,0,41.75,18.729,41.75,41.75v74C511,237.271,492.272,256,469.25,256z"/>
			</g>
			<g id="XMLID_1583_">
				<path id="XMLID_1584_" d="M413.5,293.5h-30c-4.143,0-7.5-3.357-7.5-7.5v-67.5c0-12.406,10.094-22.5,22.5-22.5
					c12.38,0,22.5,10.024,22.5,22.5V286C421,290.143,417.643,293.5,413.5,293.5z M391,278.5h15v-60c0-2-0.779-3.877-2.193-5.286
					c-1.43-1.435-3.307-2.214-5.307-2.214c-4.136,0-7.5,3.364-7.5,7.5V278.5z"/>
			</g>
			<g id="XMLID_1587_">
				<path id="XMLID_1588_" d="M218.5,473.5H91c-12.406,0-22.5-10.094-22.5-22.5v-45c0-12.406,10.094-22.5,22.5-22.5h127.5
					c12.406,0,22.5,10.094,22.5,22.5v45C241,463.406,230.906,473.5,218.5,473.5z M91,398.5c-4.136,0-7.5,3.364-7.5,7.5v45
					c0,4.136,3.364,7.5,7.5,7.5h127.5c4.136,0,7.5-3.364,7.5-7.5v-45c0-4.136-3.364-7.5-7.5-7.5H91z"/>
			</g>
			<g id="XMLID_1591_">
				<path id="XMLID_1592_" d="M421,473.5H293.5c-12.406,0-22.5-10.094-22.5-22.5v-45c0-12.406,10.094-22.5,22.5-22.5H421
					c12.406,0,22.5,10.094,22.5,22.5v45C443.5,463.406,433.406,473.5,421,473.5z M293.5,398.5c-4.136,0-7.5,3.364-7.5,7.5v45
					c0,4.136,3.364,7.5,7.5,7.5H421c4.136,0,7.5-3.364,7.5-7.5v-45c0-4.136-3.364-7.5-7.5-7.5H293.5z"/>
			</g>
			<g id="XMLID_1595_">
				<path id="XMLID_1596_" d="M263.5,143.5c-4.143,0-7.5-3.357-7.5-7.5c0-63.925-52.57-120-112.5-120S31,72.075,31,136
					c0,4.143-3.357,7.5-7.5,7.5S16,140.143,16,136C16,66.533,72.155,1,143.5,1C214.705,1,271,66.416,271,136
					C271,140.143,267.643,143.5,263.5,143.5z"/>
			</g>
			<g id="XMLID_1597_">
				<path id="XMLID_1598_" d="M53.501,293.416c-4.085-0.684-6.842-4.551-6.157-8.636c5.49-32.771,27.349-60.131,57.133-73.152
					c3.794-1.661,8.217,0.071,9.876,3.868c1.659,3.795-0.072,8.217-3.868,9.876c-24.706,10.802-43.618,33.658-48.348,61.887
					C61.458,291.316,57.614,294.105,53.501,293.416z"/>
			</g>
			<g id="XMLID_1599_">
				<path id="XMLID_1600_" d="M224.855,287.245c-4.716-27.999-23.393-50.974-48.338-61.872c-3.796-1.659-5.528-6.08-3.87-9.876
					s6.081-5.527,9.876-3.87c30.149,13.174,51.676,40.764,57.123,73.128c0.689,4.085-2.065,7.953-6.15,8.641
					C229.442,294.082,225.546,291.356,224.855,287.245z"/>
			</g>
			<g id="XMLID_1601_">
				<path id="XMLID_1602_" d="M227.241,172.971c-4.082-0.706-6.818-4.588-6.112-8.669c0.707-4.082,4.588-6.814,8.669-6.112
					C243.279,160.525,256,150.012,256,136c0-14.013-12.722-24.525-26.202-22.189c-4.08,0.699-7.962-2.029-8.669-6.112
					c-0.706-4.081,2.03-7.963,6.112-8.669c2.031-0.352,4.138-0.529,6.259-0.529c20.678,0,37.5,16.822,37.5,37.5
					C271,159.328,249.846,176.883,227.241,172.971z"/>
			</g>
			<g id="XMLID_1603_">
				<path id="XMLID_1604_" d="M16,136c0-23.076,21.037-40.808,43.608-36.994c3.603,0.548,6.367,3.659,6.367,7.414
					c0,4.143-3.353,7.5-7.495,7.5h-0.01c-1.351,0-2.182-0.42-4.97-0.42c-12.193,0-22.5,9.989-22.5,22.5
					c0,14.009,12.67,24.534,26.202,22.189c4.082-0.702,7.963,2.03,8.669,6.112c0.706,4.081-2.03,7.963-6.112,8.669
					C37.064,176.899,16,159.352,16,136z"/>
			</g>
			<g id="XMLID_1605_">
				<path id="XMLID_1606_" d="M143.49,233.499c-42.337,0-78.639-27.359-92.026-65.453c-10.364-29.448-6.092-63.355,13.637-90.017
					c13.558-18.302,38.138-24.269,58.453-14.188c12.525,6.218,27.353,6.225,39.892,0.001c20.301-10.073,44.868-4.127,58.418,14.14
					c19.912,26.808,23.915,60.897,13.737,90.069C222.23,206.491,185.769,233.499,143.49,233.499z M176.515,211.628
					c39.895-17.442,58.941-62.549,44.924-102.737c-0.002-0.004-0.003-0.008-0.004-0.011c-2.733-7.874-6.642-15.261-11.615-21.957
					c-9.222-12.432-25.92-16.486-39.705-9.645c-16.731,8.305-36.484,8.312-53.229-0.001c-13.796-6.847-30.505-2.774-39.729,9.678
					c-16.817,22.724-20.228,51.431-11.542,76.114c7.591,21.601,23.962,39.279,44.918,48.507
					C130.832,220.619,155.129,220.98,176.515,211.628z"/>
			</g>
			<g id="XMLID_1609_">
				<path id="XMLID_1610_" d="M210.513,252.848c-2.181-3.523-1.093-8.145,2.43-10.324c49.611-30.708,43.163-105.06,43.092-105.807
					c-0.391-4.121,2.63-7.783,6.75-8.179c4.117-0.393,7.782,2.618,8.181,6.738c0.083,0.855,1.973,21.223-3.057,46.059
					c-6.786,33.514-23.064,59.083-47.071,73.942C217.326,257.45,212.7,256.382,210.513,252.848z"/>
			</g>
			<g id="XMLID_1611_">
				<path id="XMLID_1612_" d="M66.163,255.277c-24.008-14.859-40.285-40.429-47.071-73.942c-5.029-24.836-3.14-45.204-3.057-46.059
					c0.399-4.123,4.055-7.146,8.188-6.741c4.121,0.399,7.139,4.063,6.742,8.184c-0.082,0.872-6.477,75.123,43.092,105.805
					c3.522,2.18,4.61,6.802,2.43,10.324C74.3,256.38,69.673,257.452,66.163,255.277z"/>
			</g>
			<g id="XMLID_1613_">
				<path id="XMLID_1614_" d="M187.7,126.83h-7.6c-4.143,0-7.5-3.357-7.5-7.5s3.357-7.5,7.5-7.5h7.601c4.143,0,7.5,3.357,7.5,7.5
					S191.843,126.83,187.7,126.83z"/>
			</g>
			<g id="XMLID_1615_">
				<path id="XMLID_1616_" d="M106.9,126.83h-7.6c-4.143,0-7.5-3.357-7.5-7.5s3.357-7.5,7.5-7.5h7.601c4.143,0,7.5,3.357,7.5,7.5
					S111.043,126.83,106.9,126.83z"/>
			</g>
			<g id="XMLID_1617_">
				<path id="XMLID_1618_" d="M113.368,168.206c-2.93-2.929-2.932-7.677-0.004-10.607c2.929-2.93,7.677-2.932,10.607-0.004
					c10.771,10.765,28.292,10.767,39.055,0.002c2.93-2.928,7.678-2.928,10.607,0c2.929,2.93,2.929,7.678,0,10.607
					C157.024,184.812,129.99,184.814,113.368,168.206z"/>
			</g>
			<circle id="XMLID_3843_" cx="393.984" cy="106" r="7.5"/>
			<circle id="XMLID_1_" cx="133.151" cy="353.5" r="7.5"/>
		</g>
	</g>
</g>
<g id="Layer_1_1_">
</g>
</svg>
