<?xml version="1.0" encoding="iso-8859-1"?>
<!-- Generator: Adobe Illustrator 24.1.0, SVG Export Plug-In . SVG Version: 6.00 Build 0)  -->
<svg version="1.1" xmlns="http://www.w3.org/2000/svg" xmlns:xlink="http://www.w3.org/1999/xlink" x="0px" y="0px"
	 viewBox="0 0 512 512" style="enable-background:new 0 0 512 512;" xml:space="preserve">
<g id="_x31_1_x2C__Digital_marketing_x2C__online_marketing_x2C__promotion_x2C__advertising_x2C__content">
	<g>
		<g>
			<path style="fill:#FBF3F3;" d="M500.375,362.25H11.625V117.875c0-23.471,19.029-42.5,42.5-42.5c12.835,0,403.63,0,403.75,0
				c23.471,0,42.5,19.029,42.5,42.5C500.375,129.575,500.375,352.77,500.375,362.25z"/>
			<polygon style="fill:#FFBB33;" points="149.75,54.125 149.75,128.5 86,128.5 86,75.375 86,54.125 			"/>
			<path style="fill:#FFDD33;" d="M224.125,171l-74.375-42.5V54.125l74.375-42.5C224.125,18.961,224.125,163.645,224.125,171z"/>
			<path style="fill:#FF884D;" d="M266.625,208.187c0-20.538,16.649-37.188,37.188-37.188c10.264,0,19.571,4.165,26.297,10.891
				c6.726,6.726,10.891,16.033,10.891,26.297v26.563h-74.375V208.187z"/>
			<path style="fill:#80AAFF;" d="M420.688,171c20.552,0,37.188,16.659,37.188,37.188v26.563H383.5v-26.563
				C383.5,187.649,400.149,171,420.688,171z"/>
			<circle style="fill:#FFDDCE;" cx="420.688" cy="144.437" r="26.563"/>
			<circle style="fill:#FFDDCE;" cx="303.813" cy="144.437" r="26.563"/>
			<path style="fill:#363671;" d="M356.938,500.375H155.063c41.076,0,74.375-33.299,74.375-74.375h53.125
				C282.563,467.074,315.86,500.375,356.938,500.375z"/>
			<path style="fill:#4E4E88;" d="M500.375,362.25v21.25c0,23.471-19.029,42.5-42.5,42.5c-10.901,0-217.53,0-228.438,0H54.125
				c-23.471,0-42.5-19.029-42.5-42.5v-21.25H500.375z"/>
			<path d="M457.875,436.625H54.125C24.832,436.625,1,412.793,1,383.5V117.875C1,88.582,24.832,64.75,54.125,64.75H86
				c5.868,0,10.625,4.757,10.625,10.625C96.625,81.243,91.868,86,86,86H54.125c-17.576,0-31.875,14.299-31.875,31.875V383.5
				c0,17.576,14.299,31.875,31.875,31.875h403.75c17.576,0,31.875-14.299,31.875-31.875V117.875
				c0-17.576-14.299-31.875-31.875-31.875h-233.75c-5.868,0-10.625-4.757-10.625-10.625c0-5.868,4.757-10.625,10.625-10.625h233.75
				c29.293,0,53.125,23.832,53.125,53.125V383.5C511,412.793,487.168,436.625,457.875,436.625z"/>
			<path d="M155.063,511c-5.868,0-10.625-4.757-10.625-10.625s4.757-10.625,10.625-10.625c35.152,0,63.75-28.598,63.75-63.75
				c0-5.868,4.757-10.625,10.625-10.625c5.868,0,10.625,4.757,10.625,10.625C240.063,472.869,201.932,511,155.063,511z"/>
			<path d="M356.938,511H155.063c-5.868,0-10.625-4.757-10.625-10.625s4.757-10.625,10.625-10.625h145.643
				c-17.952-15.867-28.768-38.616-28.768-63.75c0-5.868,4.757-10.625,10.625-10.625c5.868,0,10.625,4.757,10.625,10.625
				c0,35.089,28.383,63.75,63.75,63.75c5.868,0,10.625,4.757,10.625,10.625S362.805,511,356.938,511z"/>
			<path d="M500.375,372.875H11.625C5.757,372.875,1,368.118,1,362.25s4.757-10.625,10.625-10.625h488.75
				c5.868,0,10.625,4.757,10.625,10.625S506.243,372.875,500.375,372.875z"/>
			<path d="M149.75,139.125H86c-5.868,0-10.625-4.757-10.625-10.625V54.125C75.375,48.257,80.132,43.5,86,43.5h63.75
				c5.868,0,10.625,4.757,10.625,10.625S155.618,64.75,149.75,64.75H96.625v53.125h53.125c5.868,0,10.625,4.757,10.625,10.625
				C160.375,134.368,155.618,139.125,149.75,139.125z"/>
			<path d="M224.125,181.625c-1.819,0-3.638-0.466-5.271-1.4l-74.375-42.5c-3.311-1.892-5.353-5.413-5.353-9.225V54.125
				c0-3.813,2.043-7.333,5.353-9.225l74.375-42.5c3.289-1.879,7.329-1.866,10.604,0.036c3.276,1.901,5.292,5.402,5.292,9.189V171
				c0,3.787-2.016,7.289-5.292,9.189C227.81,181.146,225.967,181.625,224.125,181.625z M160.375,122.334l53.125,30.357V29.934
				l-53.125,30.357V122.334z"/>
			<path d="M341,245.375h-74.375c-5.868,0-10.625-4.757-10.625-10.625v-26.563c0-26.364,21.448-47.813,47.813-47.813
				c12.773,0,24.78,4.973,33.81,14.002c9.029,9.03,14.002,21.037,14.002,33.81v26.563C351.625,240.618,346.868,245.375,341,245.375z
				 M277.25,224.125h53.125v-15.938c0-7.097-2.762-13.768-7.779-18.784c-5.016-5.016-11.686-7.779-18.784-7.779
				c-14.647,0-26.563,11.916-26.563,26.563V224.125z"/>
			<path d="M303.813,181.625c-20.505,0-37.188-16.683-37.188-37.188s16.683-37.188,37.188-37.188S341,123.932,341,144.437
				S324.317,181.625,303.813,181.625z M303.813,128.5c-8.788,0-15.938,7.15-15.938,15.938c0,8.788,7.149,15.938,15.938,15.938
				s15.938-7.15,15.938-15.938C319.75,135.65,312.601,128.5,303.813,128.5z"/>
			<path d="M457.875,245.375H383.5c-5.868,0-10.625-4.757-10.625-10.625v-26.563c0-26.364,21.448-47.813,47.813-47.813
				c12.773,0,24.78,4.973,33.81,14.002c9.029,9.03,14.002,21.037,14.002,33.81v26.563
				C468.5,240.618,463.743,245.375,457.875,245.375z M394.125,224.125h53.125v-15.938c0-7.097-2.762-13.768-7.779-18.784
				c-5.016-5.016-11.686-7.779-18.784-7.779c-14.647,0-26.563,11.916-26.563,26.563V224.125z"/>
			<path d="M420.688,181.625c-20.505,0-37.188-16.683-37.188-37.188s16.683-37.188,37.188-37.188s37.188,16.683,37.188,37.188
				S441.192,181.625,420.688,181.625z M420.688,128.5c-8.788,0-15.938,7.15-15.938,15.938c0,8.788,7.149,15.938,15.938,15.938
				s15.938-7.15,15.938-15.938C436.625,135.65,429.476,128.5,420.688,128.5z"/>
			<path d="M500.375,287.875h-233.75c-5.868,0-10.625-4.757-10.625-10.625c0-5.868,4.757-10.625,10.625-10.625h233.75
				c5.868,0,10.625,4.757,10.625,10.625C511,283.118,506.243,287.875,500.375,287.875z"/>
			<path d="M64.75,224.125H54.125c-5.868,0-10.625-4.757-10.625-10.625c0-5.868,4.757-10.625,10.625-10.625H64.75
				c5.868,0,10.625,4.757,10.625,10.625C75.375,219.368,70.618,224.125,64.75,224.125z"/>
			<path d="M202.875,224.125H107.25c-5.868,0-10.625-4.757-10.625-10.625c0-5.868,4.757-10.625,10.625-10.625h95.625
				c5.868,0,10.625,4.757,10.625,10.625C213.5,219.368,208.743,224.125,202.875,224.125z"/>
			<path d="M64.75,266.625H54.125c-5.868,0-10.625-4.757-10.625-10.625c0-5.868,4.757-10.625,10.625-10.625H64.75
				c5.868,0,10.625,4.757,10.625,10.625C75.375,261.868,70.618,266.625,64.75,266.625z"/>
			<path d="M202.875,266.625H107.25c-5.868,0-10.625-4.757-10.625-10.625c0-5.868,4.757-10.625,10.625-10.625h95.625
				c5.868,0,10.625,4.757,10.625,10.625C213.5,261.868,208.743,266.625,202.875,266.625z"/>
			<path d="M64.75,309.125H54.125c-5.868,0-10.625-4.757-10.625-10.625s4.757-10.625,10.625-10.625H64.75
				c5.868,0,10.625,4.757,10.625,10.625S70.618,309.125,64.75,309.125z"/>
			<path d="M202.875,309.125H107.25c-5.868,0-10.625-4.757-10.625-10.625s4.757-10.625,10.625-10.625h95.625
				c5.868,0,10.625,4.757,10.625,10.625S208.743,309.125,202.875,309.125z"/>
		</g>
	</g>
</g>
<g id="Layer_1">
</g>
</svg>
