<?xml version="1.0" encoding="iso-8859-1"?>
<!-- Generator: Adobe Illustrator 24.1.0, SVG Export Plug-In . SVG Version: 6.00 Build 0)  -->
<svg version="1.1" xmlns="http://www.w3.org/2000/svg" xmlns:xlink="http://www.w3.org/1999/xlink" x="0px" y="0px"
	 viewBox="0 0 512 512" style="enable-background:new 0 0 512 512;" xml:space="preserve">
<g id="_x30_6_x2C__news_x2C__Hobbies_x2C__hobby_x2C__online_x2C__screen">
	<g>
		<g>
			<path style="fill:#613D5C;" d="M469,51c-9.047,0-416.85,0-426,0c-17.67,0-32,14.33-32,32v258c59.85,0,419.151,0,490,0V83
				C501,65.33,486.68,51,469,51z"/>
			<path style="fill:#EDF5FF;" d="M51,91v250c15.014,0,396.175,0,410,0V91C447.296,91,66.048,91,51,91z"/>
			<path style="fill:#D0E4E7;" d="M371,341H141c0-7.939,0-300.267,0-330h230C371,39.025,371,325.256,371,341z"/>
			<rect x="191" y="51" style="fill:#27B2EB;" width="130" height="50"/>
			<rect x="221" y="401" style="fill:#441740;" width="70" height="50"/>
			<path style="fill:#4B2746;" d="M316,451c13.81,0,25,11.19,25,25c0,13.824-11.2,25-25,25H196c-13.8,0-25-11.19-25-25
				c0-13.818,11.2-25,25-25C211.085,451,300.909,451,316,451z"/>
			<path style="fill:#4B2746;" d="M501,341v28c0,17.67-14.32,32-32,32c-23.009,0-418.285,0-426,0c-17.67,0-32-14.33-32-32v-28
				C38.894,341,478.546,341,501,341z"/>
			<g>
				<path d="M469,46h-93V11c0-2.762-2.239-5-5-5H141c-2.761,0-5,2.238-5,5v35H43C22.598,46,6,62.598,6,83v286
					c0,20.402,16.598,37,37,37h173v40h-20c-16.543,0-30,13.378-30,30c0,16.542,13.458,30,30,30h120c16.586,0,30-13.411,30-30
					c0-16.542-13.458-30-30-30h-20v-40h173c20.402,0,37-16.598,37-37V83C506,62.598,489.402,46,469,46z M469,56
					c14.888,0,27,12.112,27,27v253h-30V91c0-2.762-2.239-5-5-5h-85V56H469z M376,96h80v240h-80V96z M146,16h220v320H146V16z M56,336
					V96h80v240H56z M43,56h93v30H51c-2.761,0-5,2.238-5,5v245H16V83C16,68.112,28.112,56,43,56z M336,476c0,11.059-8.938,20-20,20
					H196c-11.028,0-20-8.972-20-20c0-11.095,8.984-20,20-20h120C327.028,456,336,464.972,336,476z M286,446h-60v-40h60V446z
					 M469,396H43c-14.888,0-27-12.112-27-27v-23c11.868,0,466.553,0,480,0v23C496,383.888,483.888,396,469,396z"/>
				<path d="M191,106h130c2.761,0,5-2.238,5-5V51c0-2.762-2.239-5-5-5H191c-2.761,0-5,2.238-5,5v50C186,103.762,188.239,106,191,106
					z M196,56h120v40H196V56z"/>
				<path d="M191,146h80c2.761,0,5-2.238,5-5s-2.239-5-5-5h-80c-2.761,0-5,2.238-5,5S188.239,146,191,146z"/>
				<path d="M191,186h130c2.761,0,5-2.238,5-5s-2.239-5-5-5H191c-2.761,0-5,2.238-5,5S188.239,186,191,186z"/>
				<path d="M191,226h130c2.761,0,5-2.238,5-5s-2.239-5-5-5H191c-2.761,0-5,2.238-5,5S188.239,226,191,226z"/>
				<path d="M191,266h130c2.761,0,5-2.238,5-5s-2.239-5-5-5H191c-2.761,0-5,2.238-5,5S188.239,266,191,266z"/>
			</g>
		</g>
	</g>
</g>
<g id="Layer_1">
</g>
</svg>
