<?xml version="1.0" encoding="iso-8859-1"?>
<!-- Generator: Adobe Illustrator 24.1.0, SVG Export Plug-In . SVG Version: 6.00 Build 0)  -->
<svg version="1.1" xmlns="http://www.w3.org/2000/svg" xmlns:xlink="http://www.w3.org/1999/xlink" x="0px" y="0px"
	 viewBox="0 0 512 512" style="enable-background:new 0 0 512 512;" xml:space="preserve">
<g id="_x31_4_Magic_Book_x2C__entertainment_x2C__magic_x2C__mystiic_x2C__fortune_teller">
	<g>
		<path style="fill:#FF6699;" d="M502,230.901v271.1c-6.94,0-126.47,0-246,0c57.01-33.57,125.59-49.16,195.8-40.16
			c0-122.63,0-145.42,0-230.94H502z"/>
		<path style="fill:#E0F5F9;" d="M451.8,461.841c-70.21-9-138.79,6.59-195.8,40.16v-261.06c56.94-46.39,124.98-73.52,195.8-80.33
			C451.8,355.56,451.8,266.818,451.8,461.841z"/>
		<polygon style="fill:#FFDF40;" points="256,100.371 284.4,142.251 256,180.691 227.6,142.251 		"/>
		<path style="fill:#E0F5F9;" d="M256,240.941v261.06c-58.39-36.56-127.81-50.76-195.8-40.16c0-195.023,0-106.28,0-301.23
			C132.55,160.221,202.77,187.281,256,240.941z"/>
		<path style="fill:#FF6699;" d="M256,502.001c-119.53,0-239.06,0-246,0v-271.1h50.2c0,85.52,0,108.31,0,230.94
			C128.19,451.241,197.61,465.441,256,502.001z"/>
		<path d="M100.367,311.184h115.47c5.523,0,10-4.478,10-10c0-5.523-4.477-10-10-10h-115.47c-5.522,0-10,4.477-10,10
			C90.367,306.707,94.845,311.184,100.367,311.184z"/>
		<path d="M100.367,361.388h115.47c5.523,0,10-4.478,10-10c0-5.523-4.477-10-10-10h-115.47c-5.522,0-10,4.477-10,10
			C90.367,356.911,94.845,361.388,100.367,361.388z"/>
		<path d="M100.367,411.592h115.47c5.523,0,10-4.478,10-10c0-5.523-4.477-10-10-10h-115.47c-5.522,0-10,4.477-10,10
			C90.367,407.115,94.845,411.592,100.367,411.592z"/>
		<path d="M296.163,311.184h115.47c5.522,0,10-4.478,10-10c0-5.523-4.478-10-10-10h-115.47c-5.522,0-10,4.477-10,10
			C286.163,306.707,290.641,311.184,296.163,311.184z"/>
		<path d="M296.163,361.388h115.47c5.522,0,10-4.478,10-10c0-5.523-4.478-10-10-10h-115.47c-5.522,0-10,4.477-10,10
			C286.163,356.911,290.641,361.388,296.163,361.388z"/>
		<path d="M296.163,411.592h115.47c5.522,0,10-4.478,10-10c0-5.523-4.478-10-10-10h-115.47c-5.522,0-10,4.477-10,10
			C286.163,407.115,290.641,411.592,296.163,411.592z"/>
		<path d="M502,220.899h-40.204v-60.286c0-5.858-5.029-10.508-10.958-9.954c-71.105,6.84-138.039,33.419-194.164,76.984
			c-52.967-50.155-122.381-77.431-196.525-77.03c-5.502,0.03-9.945,4.498-9.945,10v60.286H10c-5.523,0-10,4.478-10,10v271.102
			c0,5.523,4.477,10,10,10h492c5.522,0,10-4.477,10-10V230.899C512,225.377,507.522,220.899,502,220.899z M441.796,450.681
			c-60.457-5.536-121.901,6.51-175.796,34.376V245.731c50.851-40.326,111.331-65.746,175.796-73.941V450.681z M70.204,170.737
			c66.619,2.038,128.577,28.2,175.796,74.365v239.467c-53.753-29.327-115.207-41.2-175.796-34.18V170.737z M20,240.899h30.204
			v220.939c0,2.921,1.277,5.696,3.496,7.597c2.218,1.898,5.15,2.733,8.045,2.284c52.51-8.187,105.984-0.983,154.091,20.282H20
			V240.899z M492,492.001H298.574c47.802-19.675,100.469-26.843,151.951-20.244c5.965,0.77,11.271-3.889,11.271-9.919V240.899H492
			V492.001z"/>
		<path d="M247.957,186.637c3.995,5.406,12.091,5.405,16.086,0l28.399-38.441c2.52-3.412,2.614-8.043,0.234-11.555l-28.399-41.886
			c-3.962-5.841-12.588-5.849-16.555,0l-28.4,41.886c-2.38,3.512-2.286,8.143,0.234,11.555L247.957,186.637z M256,118.187
			l16.149,23.818L256,163.866l-16.149-21.86L256,118.187z"/>
		<path d="M311.218,110.368c2.979,0,5.929-1.326,7.9-3.86l70.285-90.367c3.391-4.359,2.605-10.643-1.754-14.033
			c-4.359-3.392-10.641-2.606-14.033,1.754l-70.285,90.367C298.189,100.84,303.005,110.368,311.218,110.368z"/>
		<path d="M322.168,144.592c2.228,5.014,8.12,7.334,13.199,5.076l90.368-40.163c5.047-2.242,7.319-8.152,5.076-13.199
			c-2.242-5.045-8.152-7.319-13.199-5.076l-90.368,40.163C322.197,133.635,319.925,139.546,322.168,144.592z"/>
		<path d="M192.882,106.507c1.972,2.534,4.92,3.86,7.9,3.86c8.211,0,13.03-9.527,7.887-16.14L138.384,3.861
			c-3.391-4.358-9.672-5.144-14.033-1.754c-4.359,3.391-5.145,9.674-1.754,14.033L192.882,106.507z"/>
		<path d="M86.265,109.506l90.368,40.163c5.09,2.262,10.975-0.072,13.199-5.076c2.243-5.047-0.029-10.957-5.076-13.199L94.388,91.23
			c-5.052-2.245-10.957,0.03-13.199,5.076C78.945,101.353,81.218,107.263,86.265,109.506z"/>
		<path d="M256,70.205c5.522,0,10-4.478,10-10V10.001c0-5.523-4.478-10-10-10c-5.523,0-10,4.477-10,10v50.204
			C246,65.727,250.477,70.205,256,70.205z"/>
	</g>
</g>
<g id="Layer_1">
</g>
</svg>
